#!OML:ASF E:\Style4\Style4.ASF
:FULLY-SPECIFIED
:DEGREES
2344
root 0.367603 16.4284 -0.159078 3.84878 8.53277 4.26022
lowerback 13.5526 3.98129 -2.21287
upperback 6.5885 4.98986 -0.73212
thorax -0.763623 2.46757 -0.218001
lowerneck 10.0668 -3.30279 -4.13195
upperneck -2.38931 -4.71787 3.46581
head -2.33514 -2.4148 2.08277
rclavicle 3.3197e-014 -4.77083e-015
rhumerus -29.5606 20.7151 -55.6535
rradius 137.035
rwrist -74.8896
rhand 50.4705 -1.62709
rfingers 7.12502
rthumb 70.2566 3.47429
lclavicle 3.3197e-014 -4.77083e-015
lhumerus -13.8769 -12.5436 52.9192
lradius 139.756
lwrist 74.6609
lhand 35.6724 49.0155
lfingers 7.12502
lthumb 58.7214 64.0715
rfemur -29.3636 -11.5158 13.593
rtibia 62.3215
rfoot -30.6439 -21.7102
rtoes -14.7608
lfemur -30.2144 -3.33835 -24.9984
ltibia 58.337
lfoot -29.9203 10.1152
ltoes -17.4416
2345
root 0.36776 16.4291 -0.160471 3.87779 8.52316 4.28557
lowerback 13.5649 3.95505 -2.21736
upperback 6.6793 4.95601 -0.757388
thorax -0.67229 2.45047 -0.233561
lowerneck 10.2016 -3.25886 -4.15757
upperneck -3.4529 -4.65226 3.584
head -2.72003 -2.38213 2.15669
rclavicle 9.83984e-014 -4.57205e-014
rhumerus -29.4239 20.5666 -55.6467
rradius 137.121
rwrist -74.8966
rhand 50.526 -1.67639
rfingers 7.12502
rthumb 70.2921 3.54388
lclavicle 9.83984e-014 -4.57205e-014
lhumerus -13.7031 -12.3408 52.779
lradius 139.843
lwrist 74.6544
lhand 35.7562 48.921
lfingers 7.12502
lthumb 58.794 63.908
rfemur -29.407 -11.5425 13.5668
rtibia 62.3375
rfoot -30.6023 -21.707
rtoes -14.9513
lfemur -30.2403 -3.33913 -25.0232
ltibia 58.3157
lfoot -29.8778 10.049
ltoes -17.0897
2346
root 0.366178 16.431 -0.161442 3.9108 8.50753 4.31233
lowerback 13.6153 3.91412 -2.25812
upperback 6.7642 4.89729 -0.764698
thorax -0.611562 2.41993 -0.209986
lowerneck 10.3668 -3.14102 -4.3424
upperneck -4.6259 -4.49881 3.83115
head -3.15332 -2.30767 2.30387
rclavicle 6.75868e-015 -3.97569e-016
rhumerus -29.2945 20.4699 -55.6743
rradius 137.25
rwrist -74.921
rhand 50.5728 -1.81161
rfingers 7.12502
rthumb 70.322 3.50913
lclavicle 6.75868e-015 -3.97569e-016
lhumerus -13.6456 -12.0641 52.6761
lradius 139.978
lwrist 74.6385
lhand 35.8632 48.5871
lfingers 7.12502
lthumb 58.8866 63.4854
rfemur -29.4597 -11.5525 13.5445
rtibia 62.3531
rfoot -30.6387 -21.6472
rtoes -14.8255
lfemur -30.2743 -3.32364 -25.0457
ltibia 58.3009
lfoot -29.8415 10.0708
ltoes -17.2896
2347
root 0.363518 16.432 -0.16238 3.96267 8.45994 4.36689
lowerback 13.6532 3.85729 -2.4108
upperback 6.8497 4.80528 -0.737623
thorax -0.554627 2.36948 -0.0832696
lowerneck 10.5578 -2.94122 -4.70472
upperneck -5.88186 -4.24856 4.19125
head -3.62952 -2.18527 2.52265
rclavicle -6.2816e-014 2.0276e-014
rhumerus -29.106 20.4815 -55.6461
rradius 137.361
rwrist -74.9994
rhand 50.6147 -1.96812
rfingers 7.12502
rthumb 70.3488 3.44305
lclavicle -6.2816e-014 2.0276e-014
lhumerus -13.757 -11.6723 52.6144
lradius 140.141
lwrist 74.6348
lhand 36.0663 47.9409
lfingers 7.12502
lthumb 59.0622 62.6695
rfemur -29.5436 -11.5456 13.5026
rtibia 62.367
rfoot -30.6919 -21.5699
rtoes -14.853
lfemur -30.3247 -3.29543 -25.0955
ltibia 58.2889
lfoot -29.837 10.1563
ltoes -17.6564
2348
root 0.361691 16.4333 -0.162319 4.01645 8.42851 4.34237
lowerback 13.6661 3.81603 -2.42285
upperback 6.90819 4.75029 -0.740902
thorax -0.49965 2.34127 -0.0704971
lowerneck 10.5844 -2.82481 -4.85351
upperneck -7.23552 -4.0572 4.62455
head -3.68209 -2.1182 2.44372
rclavicle -6.95746e-014 3.93594e-014
rhumerus -29.024 20.4547 -55.7151
rradius 137.399
rwrist -75.0076
rhand 50.668 -1.99773
rfingers 7.12502
rthumb 70.3827 3.52856
lclavicle -6.95746e-014 3.93594e-014
lhumerus -13.8098 -11.4333 52.4551
lradius 140.292
lwrist 74.6755
lhand 36.1551 47.9719
lfingers 7.12502
lthumb 59.1388 62.6256
rfemur -29.6258 -11.5287 13.5541
rtibia 62.3688
rfoot -30.6135 -21.639
rtoes -15.1208
lfemur -30.3949 -3.26417 -25.0523
ltibia 58.2955
lfoot -29.8905 10.1099
ltoes -17.6322
2349
root 0.360598 16.4337 -0.162079 4.0753 8.39584 4.34001
lowerback 13.645 3.80839 -2.40774
upperback 6.96381 4.74352 -0.774346
thorax -0.425694 2.33825 -0.108658
lowerneck 10.5661 -2.80679 -4.86694
upperneck -8.19922 -4.00417 4.77008
head -3.97187 -2.09567 2.50394
rclavicle 1.17283e-014 -1.59028e-014
rhumerus -29.0034 20.323 -55.8161
rradius 137.386
rwrist -75.009
rhand 50.8026 -2.01563
rfingers 7.12502
rthumb 70.468 3.80358
lclavicle 1.17283e-014 -1.59028e-014
lhumerus -13.774 -11.2751 52.3059
lradius 140.401
lwrist 74.7059
lhand 36.2252 48.2717
lfingers 7.12502
lthumb 59.1993 62.8659
rfemur -29.7041 -11.5043 13.576
rtibia 62.3765
rfoot -30.5435 -21.707
rtoes -15.3412
lfemur -30.4648 -3.22329 -25.0377
ltibia 58.303
lfoot -29.8622 10.0008
ltoes -17.441
2350
root 0.358951 16.4327 -0.162968 4.14038 8.368 4.34002
lowerback 13.662 3.81723 -2.36267
upperback 7.00073 4.75992 -0.816442
thorax -0.388953 2.34795 -0.17904
lowerneck 10.5234 -2.82836 -4.8609
upperneck -9.14699 -4.00318 4.8717
head -4.25231 -2.09705 2.55049
rclavicle -2.56432e-014 4.6118e-014
rhumerus -29.0925 20.1589 -55.9528
rradius 137.382
rwrist -74.8807
rhand 50.8742 -1.87503
rfingers 7.12502
rthumb 70.5131 4.10084
lclavicle -2.56432e-014 4.6118e-014
lhumerus -13.7296 -11.1862 52.1845
lradius 140.471
lwrist 74.7398
lhand 36.4242 48.3412
lfingers 7.12502
lthumb 59.3708 62.7655
rfemur -29.8072 -11.4858 13.6033
rtibia 62.4012
rfoot -30.5163 -21.7506
rtoes -15.3461
lfemur -30.5542 -3.18859 -25.031
ltibia 58.3224
lfoot -29.8219 9.977
ltoes -17.2459
2351
root 0.359032 16.4325 -0.163561 4.20877 8.33927 4.36137
lowerback 13.7214 3.83693 -2.31985
upperback 7.00486 4.78781 -0.863294
thorax -0.409117 2.3638 -0.259055
lowerneck 10.4634 -2.8545 -4.85464
upperneck -9.99672 -4.00844 4.96874
head -4.50041 -2.10161 2.59455
rclavicle -5.1684e-015 -8.34896e-015
rhumerus -29.3668 20.0112 -56.1084
rradius 137.469
rwrist -74.7541
rhand 50.8935 -1.83914
rfingers 7.12502
rthumb 70.5253 4.17923
lclavicle -5.1684e-015 -8.34896e-015
lhumerus -13.7278 -11.2026 52.1015
lradius 140.537
lwrist 74.7844
lhand 36.6362 48.4729
lfingers 7.12502
lthumb 59.5532 62.7139
rfemur -29.9091 -11.4829 13.5911
rtibia 62.4365
rfoot -30.5161 -21.7492
rtoes -15.3394
lfemur -30.6348 -3.1794 -25.0581
ltibia 58.3391
lfoot -29.79 10.0421
ltoes -17.4289
2352
root 0.35798 16.4314 -0.165603 4.2696 8.30051 4.38721
lowerback 13.8173 3.89079 -2.27958
upperback 6.94205 4.85675 -0.93603
thorax -0.517397 2.40098 -0.375845
lowerneck 10.5809 -2.91053 -4.76582
upperneck -10.7822 -4.04467 5.09496
head -4.75849 -2.12869 2.63967
rclavicle -2.40529e-014 1.15295e-014
rhumerus -29.8249 19.8559 -56.2274
rradius 137.577
rwrist -74.794
rhand 50.8525 -1.92213
rfingers 7.12502
rthumb 70.4995 4.00616
lclavicle -2.40529e-014 1.15295e-014
lhumerus -13.7671 -11.3472 51.9808
lradius 140.618
lwrist 74.8476
lhand 36.5983 48.9194
lfingers 7.12502
lthumb 59.5205 63.1933
rfemur -30.0247 -11.4781 13.5836
rtibia 62.4887
rfoot -30.455 -21.7765
rtoes -15.5412
lfemur -30.7325 -3.14427 -25.0727
ltibia 58.3726
lfoot -29.7823 9.95845
ltoes -17.2146
2353
root 0.357239 16.4279 -0.166394 4.33494 8.26255 4.41101
lowerback 13.8878 3.97441 -2.20636
upperback 6.83822 4.96808 -1.0466
thorax -0.64923 2.46072 -0.556433
lowerneck 10.8122 -3.01257 -4.51436
upperneck -11.5168 -4.12351 5.19415
head -5.02292 -2.18388 2.65539
rclavicle -6.36111e-015 1.59028e-015
rhumerus -30.3684 19.6793 -56.406
rradius 137.649
rwrist -74.7809
rhand 50.717 -1.91414
rfingers 7.12502
rthumb 70.4138 3.71852
lclavicle -6.36111e-015 1.59028e-015
lhumerus -13.7907 -11.6371 51.8074
lradius 140.685
lwrist 74.8784
lhand 36.3193 49.2284
lfingers 7.12502
lthumb 59.2804 63.7426
rfemur -30.1352 -11.4928 13.5674
rtibia 62.5485
rfoot -30.489 -21.6668
rtoes -15.4361
lfemur -30.8304 -3.08531 -25.0926
ltibia 58.4197
lfoot -29.7571 9.97897
ltoes -17.3404
2354
root 0.356682 16.4245 -0.168147 4.34925 8.21587 4.35889
lowerback 13.9665 4.00376 -2.09414
upperback 6.79896 5.01523 -1.09875
thorax -0.718704 2.48779 -0.686804
lowerneck 10.8663 -3.03823 -4.37368
upperneck -12.1597 -4.11799 5.23357
head -5.23359 -2.18839 2.65952
rclavicle -9.34288e-015 2.10712e-014
rhumerus -30.6506 19.6105 -56.5617
rradius 137.662
rwrist -74.7231
rhand 50.5586 -1.87454
rfingers 7.12502
rthumb 70.3129 3.41567
lclavicle -9.34288e-015 2.10712e-014
lhumerus -13.9353 -11.8012 51.7173
lradius 140.769
lwrist 74.83
lhand 36.0479 49.1237
lfingers 7.12502
lthumb 59.0463 63.8677
rfemur -30.2109 -11.463 13.6357
rtibia 62.6056
rfoot -30.5 -21.6615
rtoes -15.6329
lfemur -30.8985 -3.02968 -25.0314
ltibia 58.4848
lfoot -29.7533 9.97744
ltoes -17.3881
